<svg xmlns="http://www.w3.org/2000/svg" xmlns:xlink="http://www.w3.org/1999/xlink" viewBox="0,0,256,256" width="200px" height="200px"><g fill="#ffffff" fill-rule="nonzero" stroke="none" stroke-width="1" stroke-linecap="butt" stroke-linejoin="miter" stroke-miterlimit="10" stroke-dasharray="" stroke-dashoffset="0" font-family="none" font-weight="none" font-size="none" text-anchor="none" style="mix-blend-mode: normal"><g transform="scale(2.56,2.56)"><path d="M40.24414,17.74219c-0.87808,-0.01926 -1.77197,-0.00718 -2.67773,0.03516c-5.43459,0.25403 -11.27838,1.62058 -16.52734,4.14648c-6.99862,3.36787 -13.01858,8.92401 -14.91797,16.79102c-1.6136,6.68531 0.42703,13.59275 4.10547,18.76953c3.28652,4.62522 8.00483,7.88007 13.05469,8.18164c0.61911,2.73511 -0.05579,5.31917 -1.23828,7.64648c-0.67419,1.32689 -1.48044,2.53144 -2.20312,3.54688c-0.72268,1.01543 -1.32615,1.72961 -1.78711,2.60547c-0.37571,0.71523 -0.28425,1.58626 0.23183,2.20785c0.51607,0.62159 1.35542,0.87169 2.12755,0.63395c0,0 3.00005,-0.92355 6.5332,-2.42578c3.53316,-1.50223 7.61456,-3.47118 10.14453,-6.20508c3.10633,-3.35672 4.44541,-5.40906 5.13867,-6.55859c0.84229,0.13177 2.04439,0.37737 4.75,0.35937c1.18775,2.34893 2.95341,4.32529 4.74023,6.2832c4.69554,5.14632 11.78764,5.45691 14.73438,5.34766c0.40887,0.82288 1.01005,1.8567 1.94727,2.88086c1.9632,2.14533 5.40467,4.25388 10.51953,4.23438c0.89281,-0.00451 1.67451,-0.60018 1.91572,-1.45981c0.2412,-0.85962 -0.11652,-1.77501 -0.87665,-2.24332c-0.86955,-0.5341 -1.34582,-1.95929 -1.42578,-3.5957c-0.04069,-0.83271 0.04345,-1.00075 0.10742,-1.57031c1.66246,-0.07607 4.04528,-0.32278 6.98828,-1.4707c4.53703,-1.76967 9.43586,-6.00819 9.56055,-13.83008c0.1335,-8.40073 -4.78318,-13.45997 -9.48437,-16.01367c-4.66216,-2.5325 -9.25527,-2.9732 -9.33203,-2.98047c-0.05301,-0.0084 -1.24663,-0.19926 -3.22656,-0.30859c-0.06883,-0.0038 -0.15407,-0.00424 -0.22461,-0.00781c0.47429,-8.15666 -3.38342,-14.24196 -8.96484,-18.09375c-6.02988,-4.16128 -13.93148,-6.06691 -21.13086,-6.75586c-0.84169,-0.08055 -1.70395,-0.13113 -2.58203,-0.15039zM40.16211,21.74414c0.78214,0.01519 1.54565,0.05833 2.2832,0.12891c4.53226,0.43371 9.31254,1.43738 13.52734,3.10742l-1.62109,2.57813c-0.1937,0.30258 -0.21022,0.6858 -0.04328,1.00392c0.16694,0.31812 0.49169,0.52226 0.85073,0.53478c0.35905,0.01251 0.69722,-0.16852 0.8859,-0.47424l1.79492,-2.85742c0.38242,0.17861 0.75804,0.36325 1.12695,0.55469l-1.57031,1.77148c-0.36675,0.41313 -0.32915,1.04536 0.08398,1.41211c0.41313,0.36675 1.04536,0.32915 1.41211,-0.08398l1.85547,-2.0918c0.31925,0.19837 0.63324,0.40135 0.9375,0.61133c4.80403,3.31531 7.78222,7.78709 7.24219,14.78125c-1.13339,0.04066 -2.32668,0.11501 -3.57617,0.26953c-5.99648,0.74158 -13.245,3.08872 -17.02344,9.76563c-2.30768,4.07788 -3.05073,7.6127 -2.62891,10.69336c-2.49588,-0.07333 -4.15234,-0.36523 -4.15234,-0.36523c-0.87802,-0.16758 -1.76065,0.26776 -2.16211,1.06641c0,0 -1.20404,2.4555 -5.23242,6.80859c-1.62603,1.7571 -5.44464,3.82572 -8.77148,5.24023c-0.30664,0.13038 -0.27019,0.09007 -0.56641,0.21094c0.27173,-0.4591 0.53731,-0.77813 0.79492,-1.28516c1.62588,-3.19996 2.82617,-7.48529 1.16406,-11.99414c-0.31367,-0.84945 -1.15888,-1.38221 -2.06055,-1.29883c-1.54233,0.14248 -3.20664,-0.23815 -4.84766,-1.03711l2.57227,-2.79102c0.27102,-0.28603 0.34883,-0.70455 0.19871,-1.06887c-0.15012,-0.36433 -0.50017,-0.60655 -0.89402,-0.61863c-0.2941,-0.00848 -0.57702,0.11297 -0.77344,0.33203l-2.85742,3.09961c-0.32558,-0.22183 -0.64864,-0.44783 -0.9668,-0.70117l2.18555,-2.21484c0.29462,-0.28938 0.38108,-0.7301 0.21762,-1.10935c-0.16346,-0.37925 -0.54322,-0.61902 -0.9559,-0.60354c-0.25899,0.00978 -0.50407,0.11971 -0.68359,0.30664l-2.25391,2.2832c-0.76709,-0.76598 -1.50209,-1.60586 -2.16797,-2.54297c-2.01183,-2.83131 -3.40884,-6.28853 -3.79687,-9.81445l2.67773,0.01953c0.36004,0.00706 0.69608,-0.17999 0.87978,-0.48972c0.1837,-0.30973 0.18671,-0.69431 0.00787,-1.00687c-0.17884,-0.31256 -0.51192,-0.50484 -0.87202,-0.50341l-2.80078,-0.02148c0.00286,-0.98019 0.08989,-1.95699 0.26953,-2.91992l2.29688,0.46484c0.5415,0.10949 1.06922,-0.24073 1.17871,-0.78223c0.10949,-0.5415 -0.24073,-1.06922 -0.78223,-1.17871l-2.20898,-0.44727c0.23596,-0.74627 0.52044,-1.46729 0.84766,-2.16406l2.4375,0.48242c0.35572,0.08293 0.72837,-0.03466 0.97206,-0.30675c0.24369,-0.27209 0.31966,-0.65539 0.19818,-0.99986c-0.12149,-0.34447 -0.4211,-0.59531 -0.78157,-0.65433l-1.82031,-0.36133c2.37648,-3.83346 6.14649,-6.81772 10.58398,-8.95312c0.20499,-0.09865 0.42136,-0.17866 0.62891,-0.27344l1.44141,3.08203c0.14101,0.33952 0.45694,0.5743 0.82271,0.61139c0.36577,0.03709 0.72239,-0.12949 0.9287,-0.43379c0.2063,-0.3043 0.22901,-0.69726 0.05914,-1.02331l-1.41602,-3.03125c0.60598,-0.23659 1.22502,-0.44479 1.84375,-0.65039l0.75195,3.54688c0.07392,0.34964 0.32877,0.63328 0.66853,0.74405c0.33977,0.11077 0.71282,0.03184 0.97861,-0.20705c0.26579,-0.23889 0.38392,-0.60144 0.30989,-0.95106l-0.78516,-3.71289c0.67617,-0.18734 1.35114,-0.3583 2.03125,-0.50977l0.82422,2.07422c0.12234,0.3453 0.42367,0.59608 0.78544,0.65368c0.36177,0.0576 0.72609,-0.08721 0.9496,-0.37744c0.22352,-0.29024 0.27047,-0.67945 0.12238,-1.01451l-0.68945,-1.73828c0.9761,-0.16757 1.94391,-0.29107 2.90234,-0.38477l0.10156,1.19531c0.02226,0.36252 0.23931,0.68447 0.56701,0.84106c0.3277,0.1566 0.71455,0.12322 1.01059,-0.08719c0.29604,-0.21041 0.45474,-0.56478 0.41458,-0.92575l-0.10156,-1.17773c0.7594,-0.0342 1.50836,-0.04933 2.23828,-0.03516zM49.42773,36.19922c-0.18987,-0.01241 -0.38617,0.00025 -0.61523,0.05469c-0.28173,0.06729 -0.99702,0.20248 -1.58789,0.78711c-0.59087,0.58463 -0.95498,1.52318 -0.99805,2.85547c-0.02532,0.78731 0.21762,1.50652 0.64258,2.01563c0.42534,0.50956 0.9772,0.79868 1.5,0.9707c1.04559,0.34404 2.07147,0.28134 2.52539,0.25586c0.61209,-0.03403 1.37184,-0.2778 1.87891,-0.92578c0.50754,-0.6486 0.68453,-1.55076 0.57617,-2.66797c-0.13383,-1.37837 -1.11016,-2.29526 -2.01953,-2.77344c-0.45469,-0.23909 -0.9087,-0.3908 -1.32227,-0.47852c-0.20678,-0.04386 -0.39021,-0.08134 -0.58008,-0.09375zM31.34375,36.40039c-0.44341,0.02415 -0.96155,0.09362 -1.48437,0.26563c-0.52283,0.172 -1.07454,0.46126 -1.5,0.9707c-0.42546,0.50944 -0.67001,1.22749 -0.64453,2.01563c0.04307,1.33228 0.40717,2.27084 0.99805,2.85547c0.59087,0.58463 1.30421,0.71982 1.58594,0.78711c0.00065,0 0.0013,0 0.00195,0c0.45812,0.10887 0.7798,0.04866 1.19336,-0.03906c0.41356,-0.08772 0.86953,-0.23943 1.32422,-0.47852c0.90937,-0.47818 1.8857,-1.39506 2.01953,-2.77344c0.10894,-1.11724 -0.06676,-2.0192 -0.57422,-2.66797c-0.50746,-0.64877 -1.26847,-0.89212 -1.88086,-0.92578c-0.22696,-0.01274 -0.59565,-0.03391 -1.03906,-0.00977zM49.27539,38.19922c-0.14462,0.03437 0.07978,-0.0014 0.31641,0.04883c0.23662,0.05019 0.53558,0.15043 0.80664,0.29297c0.54213,0.28507 0.90777,0.64964 0.96094,1.19727c0.07864,0.81079 -0.0767,1.13553 -0.16016,1.24219c-0.08346,0.10665 -0.1734,0.14682 -0.41602,0.16016c-0.00065,0 -0.0013,0 -0.00195,0c-0.40107,0.02252 -1.2212,0.02996 -1.78711,-0.15625c-0.28295,-0.0931 -0.47679,-0.22042 -0.58789,-0.35352c-0.1111,-0.1331 -0.19433,-0.28255 -0.18164,-0.66992c0.03293,-1.01872 0.26412,-1.35742 0.40625,-1.49805c0.14213,-0.14062 0.29826,-0.18096 0.64453,-0.26367zM31.43945,38.4082c0.32588,-0.0186 0.63149,-0.01126 0.83203,0c0.24261,0.01334 0.33273,0.05367 0.41602,0.16016c0.08329,0.10648 0.23921,0.43143 0.16016,1.24219c-0.05317,0.54763 -0.41881,0.9122 -0.96094,1.19727c-0.27106,0.14254 -0.57002,0.24278 -0.80664,0.29297c-0.23662,0.05019 -0.46103,0.01446 -0.31641,0.04883c-0.34627,-0.08271 -0.5024,-0.12305 -0.64453,-0.26367c-0.14213,-0.14062 -0.37332,-0.47933 -0.40625,-1.49805c-0.01252,-0.38737 0.07038,-0.5367 0.18164,-0.66992c0.11126,-0.13322 0.3068,-0.2604 0.58984,-0.35352c0.28305,-0.09312 0.6292,-0.13765 0.95508,-0.15625zM38.27539,45.25391c-0.11506,0.02006 -0.22778,0.06361 -0.33203,0.13086c-0.417,0.269 -0.53658,0.82519 -0.26758,1.24219c0.269,0.417 0.82519,0.53658 1.24219,0.26758c0.417,-0.269 0.53658,-0.82519 0.26758,-1.24219c-0.20175,-0.31275 -0.56497,-0.45862 -0.91016,-0.39844zM71.35938,46.6875c0.53196,0.0098 1.02882,0.02843 1.48438,0.05273c1.82224,0.09722 2.97266,0.27734 2.97266,0.27734c0.03955,0.0064 0.07928,0.01161 0.11914,0.01563c0,0 2.08288,0.22496 4.70117,1.14063l-0.95898,1.05664c-0.25247,0.26249 -0.3423,0.64147 -0.23448,0.98935c0.10781,0.34788 0.39621,0.60965 0.75288,0.68335c0.35667,0.07371 0.7252,-0.0523 0.96207,-0.32895l1.45313,-1.60156c0.39347,0.18116 0.78952,0.36691 1.18555,0.58203c0.0381,0.0207 0.07524,0.04546 0.11328,0.06641l-2.72852,2.625c-0.39803,0.38347 -0.40984,1.01701 -0.02637,1.41504c0.38347,0.39803 1.01701,0.40984 1.41504,0.02637l3.08398,-2.96875c3.10277,2.17553 5.6268,5.50292 5.53516,11.26953c-0.08214,5.15279 -2.32276,7.72233 -5.10937,9.26367l-1.31055,-2.04102c-0.17992,-0.28845 -0.49406,-0.46575 -0.83398,-0.4707c-0.37125,-0.006 -0.71527,0.19418 -0.8935,0.51991c-0.17823,0.32573 -0.16133,0.72339 0.04389,1.03282l1.17383,1.82617c-0.02842,0.01123 -0.05553,0.02601 -0.08398,0.03711c-0.93581,0.36501 -1.87429,0.62327 -2.75586,0.81055l-0.75,-2.65625c-0.11666,-0.43361 -0.50802,-0.73632 -0.95703,-0.74023c-0.31715,-0.0026 -0.61673,0.14539 -0.8074,0.39884c-0.19067,0.25345 -0.24981,0.58232 -0.1594,0.88632l0.6875,2.43359c-1.51177,0.17483 -2.5625,0.14453 -2.5625,0.14453c-0.98028,-0.04222 -1.84645,0.63285 -2.04492,1.59375c0,0 -0.39565,1.87046 -0.28711,4.0918c0.03713,0.75995 0.27834,1.63326 0.49023,2.48438c-1.67276,-0.56427 -2.86125,-1.42418 -3.67773,-2.31641c-1.3378,-1.46192 -1.70312,-2.79687 -1.70312,-2.79687c-0.26158,-0.93958 -1.16268,-1.55352 -2.13281,-1.45312c0,0 -0.67724,0.03903 -1.69922,0.01367l0.0957,-1.55469c0.02173,-0.28688 -0.08113,-0.56922 -0.28231,-0.77489c-0.20118,-0.20567 -0.48118,-0.31473 -0.76847,-0.29933c-0.51248,0.02754 -0.92094,0.43853 -0.94531,0.95117l-0.09375,1.53711c-1.09815,-0.11455 -2.31502,-0.30768 -3.57422,-0.66602l0.82227,-1.4082c0.18466,-0.3069 0.1911,-0.68912 0.01688,-1.00207c-0.17422,-0.31295 -0.50249,-0.50883 -0.86063,-0.51356c-0.36529,-0.00406 -0.70373,0.19136 -0.88281,0.50977l-1.01562,1.73828c-0.51324,-0.22141 -1.01053,-0.48115 -1.49219,-0.77148l1.44727,-2.23047c0.20858,-0.31244 0.22448,-0.7154 0.04117,-1.0433c-0.18331,-0.3279 -0.53491,-0.52542 -0.91031,-0.51138c-0.33008,0.01252 -0.63269,0.18721 -0.80859,0.4668l-1.375,2.11914c-0.18899,-0.17367 -0.38207,-0.34187 -0.55664,-0.5332c-0.37586,-0.41184 -0.71386,-0.803 -1.06055,-1.19922l2.03516,-1.67187c0.33679,-0.26879 0.46356,-0.72308 0.31459,-1.12742c-0.14897,-0.40433 -0.54016,-0.6678 -0.97084,-0.65383c-0.22521,0.00744 -0.44132,0.09071 -0.61328,0.23633l-2.03906,1.67383c-1.14327,-1.4564 -2.03641,-2.86107 -2.45898,-4.31445c-0.67966,-2.33759 -0.47125,-5.04203 1.92773,-9.28125c2.88556,-5.0991 8.66664,-7.10171 14.03516,-7.76562c2.01319,-0.24897 3.91975,-0.30284 5.51563,-0.27344zM41.36719,52.54492c-0.11506,0.02006 -0.22973,0.06361 -0.33398,0.13086c-0.417,0.269 -0.53658,0.82714 -0.26758,1.24414c0.269,0.417 0.82714,0.53658 1.24414,0.26758c0.417,-0.269 0.53658,-0.82714 0.26758,-1.24414c-0.20175,-0.31275 -0.56497,-0.45862 -0.91016,-0.39844zM31.28125,52.63281c-0.11506,0.02006 -0.22973,0.06361 -0.33398,0.13086c-0.417,0.269 -0.53658,0.82714 -0.26758,1.24414c0.269,0.417 0.82714,0.53658 1.24414,0.26758c0.417,-0.269 0.53658,-0.82714 0.26758,-1.24414c-0.20175,-0.31275 -0.56497,-0.45862 -0.91016,-0.39844zM64.08984,55.42578c-0.44341,0.02366 -0.96155,0.09362 -1.48437,0.26563c-0.52283,0.17201 -1.07454,0.46126 -1.5,0.9707c-0.42546,0.50944 -0.67001,1.22944 -0.64453,2.01758c0.04307,1.33228 0.40717,2.26889 0.99805,2.85352c0.59087,0.58463 1.30421,0.71982 1.58594,0.78711c0.00065,0 0.0013,0 0.00195,0c0.45812,0.10887 0.77977,0.05063 1.19336,-0.03711c0.41359,-0.08774 0.86951,-0.24129 1.32422,-0.48047c0.90942,-0.47836 1.88574,-1.39477 2.01953,-2.77344c0.10896,-1.1168 -0.06669,-2.01759 -0.57422,-2.66602c-0.50753,-0.64843 -1.26928,-0.89145 -1.88086,-0.92578c-0.22696,-0.01274 -0.59565,-0.03538 -1.03906,-0.01172zM76.94531,55.73828c-0.18961,-0.01234 -0.38481,0.00062 -0.61328,0.05469h-0.00195c-0.28313,0.06711 -0.99742,0.20308 -1.58789,0.78711c-0.59105,0.5846 -0.95498,1.52123 -0.99805,2.85352c-0.02581,0.78812 0.21919,1.50802 0.64453,2.01758c0.42534,0.50956 0.9772,0.79868 1.5,0.9707c1.04559,0.34404 2.06951,0.27939 2.52344,0.25391c0.61209,-0.03403 1.37376,-0.27797 1.88086,-0.92578c0.50758,-0.64843 0.6826,-1.54922 0.57422,-2.66602c-0.13383,-1.37837 -1.11016,-2.29526 -2.01953,-2.77344c-0.45469,-0.23909 -0.9087,-0.3908 -1.32227,-0.47852c-0.20645,-0.04379 -0.39047,-0.08141 -0.58008,-0.09375zM64.18555,57.43359c0.32588,-0.01909 0.63149,-0.01126 0.83203,0c0.24342,0.01367 0.3328,0.05579 0.41602,0.16211c0.08322,0.10632 0.23725,0.42808 0.1582,1.23828c0,0.00065 0,0.0013 0,0.00195c-0.05321,0.54833 -0.4169,0.91213 -0.95898,1.19727c-0.27104,0.14257 -0.57004,0.24277 -0.80664,0.29297c-0.2366,0.0502 -0.46103,0.01446 -0.31641,0.04883c-0.34627,-0.08271 -0.5024,-0.12305 -0.64453,-0.26367c-0.14213,-0.14062 -0.37332,-0.47738 -0.40625,-1.49609c-0.01252,-0.38737 0.07038,-0.53866 0.18164,-0.67187c0.11126,-0.13322 0.3068,-0.25844 0.58984,-0.35156c0.28305,-0.09312 0.6292,-0.13912 0.95508,-0.1582zM76.79297,57.73828c-0.14462,0.03437 0.07978,-0.0014 0.31641,0.04883c0.23662,0.05019 0.53558,0.15043 0.80664,0.29297c0.54213,0.28507 0.90777,0.64964 0.96094,1.19727c0.07862,0.8102 -0.07673,1.13366 -0.16016,1.24023c-0.08342,0.10657 -0.1734,0.14877 -0.41602,0.16211c-0.40107,0.02252 -1.2212,0.028 -1.78711,-0.1582c-0.28295,-0.0931 -0.47874,-0.21846 -0.58984,-0.35156c-0.1111,-0.1331 -0.19237,-0.2845 -0.17969,-0.67187c0.03293,-1.01872 0.26235,-1.3557 0.4043,-1.49609c0.14195,-0.1404 0.29909,-0.18171 0.64453,-0.26367z"></path></g></g></svg>